<?xml version="1.0" encoding="utf-8"?>
<!-- Generator: Adobe Illustrator 16.0.0, SVG Export Plug-In . SVG Version: 6.00 Build 0)  -->
<!DOCTYPE svg PUBLIC "-//W3C//DTD SVG 1.1//EN" "http://www.w3.org/Graphics/SVG/1.1/DTD/svg11.dtd">
<svg version="1.1" id="Layer_1" xmlns="http://www.w3.org/2000/svg" xmlns:xlink="http://www.w3.org/1999/xlink" x="0px" y="0px"
	 width="353.586px" height="353.586px" viewBox="42.915 130.414 353.586 353.586"
	 enable-background="new 42.915 130.414 353.586 353.586" xml:space="preserve">
<g id="background">
	<circle fill="#FFFFFF" cx="219.708" cy="307.207" r="176.793"/>
</g>
<g id="Layer_2">
	<g>
		<path opacity="0.6" fill="#D2C952" enable-background="new    " d="M180.593,270.473c0.005,0,0.01-0.002,0.013-0.002
			c6.972-30.884,29.882-57.394,62.548-67.644c-23.563-21.311-57.655-29.941-90.33-19.696
			c-48.758,15.293-75.853,66.797-60.519,115.035c5.06,15.914,14.124,29.463,25.725,39.955
			C125.001,307.232,147.919,280.722,180.593,270.473z"/>
		<path opacity="0.6" fill="#5961AC" enable-background="new    " d="M359.224,262.473c-15.338-48.238-67.294-74.944-116.055-59.652
			c-0.001,0.003-0.01,0.005-0.015,0.005c11.602,10.494,20.664,24.043,25.724,39.957c5.06,15.917,5.479,32.179,2.05,47.383
			c11.596,10.494,20.662,24.046,25.723,39.961c5.06,15.912,5.475,32.178,2.039,47.383c0.007,0.001,0.009-0.002,0.014-0.007
			C347.462,362.216,374.559,310.71,359.224,262.473z"/>
		<path opacity="0.6" fill="#D75758" enable-background="new    " d="M208.369,357.811c-0.001,0-0.007,0.004-0.007,0.004
			c-32.674,10.25-66.767,1.617-90.332-19.693c-3.431,15.206-3.018,31.471,2.042,47.388c15.336,48.239,67.293,74.942,116.057,59.653
			c32.673-10.254,55.592-36.766,62.559-67.651C266.021,387.751,231.938,379.115,208.369,357.811z"/>
		<path opacity="0.6" fill="#D2C952" enable-background="new    " d="M180.606,270.47c32.667-10.243,66.753-1.61,90.321,19.696
			c3.433-15.205,3.011-31.467-2.049-47.383c-5.06-15.914-14.122-29.462-25.724-39.957
			C210.488,213.077,187.578,239.586,180.606,270.47z"/>
		<path opacity="0.6" fill="#5861AC" enable-background="new    " d="M180.606,270.47c32.667-10.243,66.753-1.61,90.321,19.696
			c3.433-15.205,3.011-31.467-2.049-47.383c-5.06-15.914-14.122-29.462-25.724-39.957
			C210.488,213.077,187.578,239.586,180.606,270.47z"/>
		<path opacity="0.6" fill="#D75758" enable-background="new    " d="M208.362,357.812c0,0,0.006-0.002,0.007-0.002
			c-11.598-10.49-20.662-24.043-25.718-39.957c-5.062-15.916-5.477-32.177-2.045-47.384c-0.003,0-0.007,0.002-0.013,0.002
			c-32.674,10.25-55.592,36.76-62.563,67.647C141.595,359.432,175.688,368.062,208.362,357.812z"/>
		<path opacity="0.6" fill="#D2C952" enable-background="new    " d="M208.362,357.812c0,0,0.006-0.002,0.007-0.002
			c-11.598-10.49-20.662-24.043-25.718-39.957c-5.062-15.916-5.477-32.177-2.045-47.384c-0.003,0-0.007,0.002-0.013,0.002
			c-32.674,10.25-55.592,36.76-62.563,67.647C141.595,359.432,175.688,368.062,208.362,357.812z"/>
		<path opacity="0.6" fill="#5961AC" enable-background="new    " d="M296.65,330.127c-5.062-15.915-14.129-29.467-25.725-39.961
			c-6.972,30.883-29.887,57.395-62.558,67.645c23.567,21.306,57.651,29.94,90.319,19.699
			C302.124,362.305,301.709,346.039,296.65,330.127z"/>
		<path opacity="0.6" fill="#D75758" enable-background="new    " d="M296.65,330.127c-5.062-15.915-14.129-29.467-25.725-39.961
			c-6.972,30.883-29.887,57.395-62.558,67.645c23.567,21.306,57.651,29.94,90.319,19.699
			C302.124,362.305,301.709,346.039,296.65,330.127z"/>
		<path opacity="0.6" fill="#D75758" enable-background="new    " d="M180.606,270.47c-3.432,15.207-3.018,31.468,2.045,47.384
			c5.057,15.914,14.121,29.467,25.718,39.957c32.671-10.25,55.586-36.763,62.558-67.646
			C247.359,268.86,213.273,260.227,180.606,270.47z"/>
		<path opacity="0.6" fill="#5861AC" enable-background="new    " d="M180.606,270.47c-3.432,15.207-3.018,31.468,2.045,47.384
			c5.057,15.914,14.121,29.467,25.718,39.957c32.671-10.25,55.586-36.763,62.558-67.646
			C247.359,268.86,213.273,260.227,180.606,270.47z"/>
		<path opacity="0.6" fill="#D2C952" enable-background="new    " d="M180.606,270.47c-3.432,15.207-3.018,31.468,2.045,47.384
			c5.057,15.914,14.121,29.467,25.718,39.957c32.671-10.25,55.586-36.763,62.558-67.646
			C247.359,268.86,213.273,260.227,180.606,270.47z"/>
	</g>
</g>
<g id="Layer_1_1_">
	<g id="u8SSdR.tif_2_">
		<g>
			<path d="M315.48,275.011c-0.701-0.711-1.54-1.308-2.146-2.088c-5.392-6.94-11.462-13.552-12.288-22.913
				c-0.747-8.455-1.061-16.958-2.076-25.377c-1.987-16.483-7.696-31.343-20.431-42.706c-9.027-8.056-20.146-12.106-31.359-15.965
				c-6.979-2.402-14.242-3.431-21.438-4.783c-0.755-0.108-1.497-0.245-2.238-0.384c-0.019-0.003-0.032,0.003-0.052-0.001
				c-0.081-0.018-0.16-0.037-0.24-0.054c-0.218-0.041-0.438-0.079-0.654-0.12c-2.693-0.23-5.377-0.414-8.069-0.589
				c-0.824-0.004-1.647-0.013-2.47-0.031h-2.452c-2.019,0.245-4.025,0.063-6.06,0.361c-1.662,0.244-3.312,0.551-4.98,0.748
				c-6.247,1.402-12.619,2.355-18.544,4.858c-20.556,8.683-37.617,20.783-42.629,44.455c-6.465,30.538-0.854,58.203,21.312,80.794
				c6.318,6.438,8.251,12.498,7.122,20.579c-0.46,3.296-0.937,6.591-1.348,9.893c-2.27,18.239-10.462,34.193-19.008,50.076
				c-10.564,19.633-21.937,38.854-31.13,59.197c-1.311,2.9-2.562,5.635-3.815,8.563c1.169,0,1,0.001,3.31-0.011
				c5.926-14.247,13.411-27.669,20.773-41.242c7.3-13.457,14.428-27.006,21.575-40.547c8.974-16.998,12.455-35.311,13.072-54.351
				c0.14-4.323-1.224-7.279-4.434-10.312c-26.02-24.589-32.465-54.627-22.516-88.175c5.685-19.169,21.322-29.399,38.975-35.909
				c31.142-11.483,60.765-5.147,88.665,10.594c14.857,8.383,21.736,22.859,24.982,39.187c1.824,9.182,2.635,18.509,2.738,27.797
				c0.139,12.249,7.126,20.737,14.262,29.348c0.635,0.764,1.484,1.346,2.143,2.094c4.109,4.676,3.619,7.221-1.911,9.94
				c-0.892,0.438-1.809,0.883-2.763,1.125c-4.79,1.215-6.109,4.176-4.399,8.645c1.424,3.722,1.459,6.498-3.675,6.738
				c-2.229,0.104-2.328,1.525-0.907,2.933c2.733,2.705,2.55,5.142,0.187,8.147c-2.16,2.75-2.355,6.041-0.867,9.457
				c0.846,1.939,1.324,4.148,1.46,6.271c0.468,7.397-1.511,9.649-8.714,11.362c-6.213,1.476-12.586,1.072-18.834,2.048
				c-3.49,0.545-6.799,1.59-10.015,2.955c-10.743,4.563-13.712,9.241-12.905,20.882c0.625,8.984,1.525,17.922-2.113,26.586
				c-1.377,3.275-0.368,6.604,0.962,9.7c2.519,5.856,5.612,11.521,10.362,15.757c6.297,5.619,11.32,11.924,15.652,18.954
				c0.122-0.023,1.791,0.047,3.119-0.016c-0.434-0.755-0.699-1.381-1.111-2.146c-3.346-6.202-7.621-11.688-12.92-16.388
				c-5.315-4.713-9.133-10.547-12.049-16.98c-1.338-2.953-1.998-5.98-0.725-9.18c2.979-7.486,2.771-15.212,2.178-23.104
				c-1.123-14.959,2.396-19.566,16.861-23.363c0.962-0.252,1.971-0.316,2.951-0.492c6.551-1.18,13.274-0.667,19.805-2.271
				c8.015-1.969,10.514-4.842,10.689-13.088c0.062-2.883-0.396-5.711-1.608-8.267c-1.616-3.411-0.886-6.64,1.639-8.638
				c3.312-2.623,0.907-4.771,0.776-7.354c-0.131-2.569,4.999-3.278,3.862-7.093c-0.142-0.477-0.093-1.025-0.301-1.461
				c-2.173-4.539-0.918-6.791,3.993-8.721C321.637,287.434,322.32,281.946,315.48,275.011z"/>
		</g>
	</g>
	<line fill="none" stroke="#000000" stroke-width="4" stroke-miterlimit="10" x1="113.5" y1="437.5" x2="276.119" y2="437.5"/>
	<path d="M275.553,439.748"/>
	<path id="jaw" fill="none" stroke="#000000" stroke-width="3" stroke-linecap="round" stroke-miterlimit="10" d="M279.666,345.667
		c0,0-20.334-0.69-42.667-9.679"/>
	<path id="sternocleidomastoid" fill="none" stroke="#000000" stroke-width="3" stroke-linecap="round" stroke-miterlimit="10" d="
		M232.331,413.667c-4.666-6.667-9.916-16.294-17.048-28.002c-8.324-13.665-12.953-62-12.953-62"/>
	<path id="ear" fill="none" stroke="#000000" stroke-width="3" stroke-linecap="round" stroke-miterlimit="10" d="M214.815,247.999
		c-3.659-3.659-11.569-6.229-15.013-4.938c-3.444,1.292-6.941,8.274-7.373,12.256c-0.255,2.363-1.445,8.676,6.162,21.484
		c2.852,4.802,3.991,1.102,12.188,10.573c5.55,6.413,11.151,2.942,10.923,0.229"/>
</g>
</svg>
